<?xml version="1.0" encoding="UTF-8" standalone="no"?>
<!-- Generator: Adobe Illustrator 14.0.0, SVG Export Plug-In . SVG Version: 6.00 Build 43363)  -->

<svg
   version="1.1"
   id="Ebene_1"
   x="0px"
   y="0px"
   width="402.76749"
   height="398"
   viewBox="0 0 402.76749 398"
   enable-background="new 0 0 760 398"
   xml:space="preserve"
   sodipodi:docname="LMU_Muenchen_Logo.svg"
   inkscape:version="1.2.1 (9c6d41e410, 2022-07-14)"
   xmlns:inkscape="http://www.inkscape.org/namespaces/inkscape"
   xmlns:sodipodi="http://sodipodi.sourceforge.net/DTD/sodipodi-0.dtd"
   xmlns="http://www.w3.org/2000/svg"
   xmlns:svg="http://www.w3.org/2000/svg"><defs
   id="defs85" /><sodipodi:namedview
   id="namedview83"
   pagecolor="#ffffff"
   bordercolor="#000000"
   borderopacity="0.25"
   inkscape:showpageshadow="2"
   inkscape:pageopacity="0.0"
   inkscape:pagecheckerboard="0"
   inkscape:deskcolor="#d1d1d1"
   showgrid="false"
   inkscape:zoom="1.8447368"
   inkscape:cx="376.7475"
   inkscape:cy="199.21541"
   inkscape:window-width="2560"
   inkscape:window-height="1361"
   inkscape:window-x="-9"
   inkscape:window-y="-9"
   inkscape:window-maximized="1"
   inkscape:current-layer="Ebene_1" />
<rect
   x="35.525002"
   y="35.568001"
   fill="#2f854c"
   width="326.715"
   height="326.875"
   id="rect2" />

<path
   fill="#ffffff"
   d="m 233.115,294.498 v -69.621 h 38.574 v 73.449 c 0,5.211 1.191,8.922 3.578,11.133 2.398,2.215 5.602,3.32 9.605,3.32 4.012,0 7.242,-1.105 9.688,-3.32 2.445,-2.211 3.684,-5.922 3.684,-11.133 v -73.449 h 38.391 v 69.621 c 0,8.309 -1.25,15.367 -3.754,21.188 -2.496,5.82 -6.012,10.547 -10.512,14.211 -4.512,3.664 -9.969,6.32 -16.367,7.969 -6.402,1.672 -13.449,2.5 -21.129,2.5 -7.566,0 -14.527,-0.828 -20.871,-2.5 -6.34,-1.648 -11.801,-4.305 -16.359,-7.969 -4.57,-3.664 -8.137,-8.391 -10.688,-14.211 -2.566,-5.821 -3.84,-12.879 -3.84,-21.188 z m -68.129,17.449 c 0,0.77 0.379,1.16 1.164,1.16 0.547,0 0.832,-0.391 0.832,-1.16 1,-7.316 2.281,-15.312 3.84,-24.012 1.566,-8.695 3.109,-17.172 4.676,-25.43 1.559,-8.242 3.062,-15.754 4.504,-22.5 1.449,-6.77 2.562,-11.797 3.348,-15.129 h 36.066 v 112.5 h -21.703 v -94.715 c 0,-0.559 -0.398,-0.832 -1.172,-0.832 -0.441,0 -0.668,0.273 -0.668,0.832 -0.887,4.422 -1.84,9.383 -2.836,14.871 -1.012,5.48 -2.23,11.902 -3.684,19.27 -1.445,7.371 -3.195,15.984 -5.25,25.836 -2.059,9.867 -4.484,21.438 -7.266,34.738 h -22.551 c -2.777,-13.074 -5.145,-24.375 -7.094,-33.906 -1.957,-9.52 -3.652,-17.879 -5.098,-25.09 -1.441,-7.195 -2.727,-13.621 -3.84,-19.273 -1.105,-5.648 -2.223,-11.133 -3.34,-16.445 0,-0.559 -0.391,-0.832 -1.172,-0.832 -0.438,0 -0.664,0.273 -0.664,0.832 v 94.715 h -19.867 v -112.5 h 36.23 c 0.559,2.434 1.234,5.586 2.008,9.473 0.77,3.887 1.645,8.223 2.582,13.047 0.953,4.805 1.918,9.969 2.93,15.438 0.996,5.5 2,11.086 3.004,16.797 1.004,5.703 1.918,11.301 2.758,16.789 0.834,5.475 1.588,10.655 2.263,15.526 z M 58.775,224.877 h 11.02 v 104.191 h 32.059 v 8.309 H 58.775 Z"
   id="path6" />





































</svg>
